<svg id="svg" version="1.1" width="400" height="401.8475750577367" xmlns="http://www.w3.org/2000/svg" xmlns:xlink="http://www.w3.org/1999/xlink" style="display: block;"><g id="svgg"><path id="path0" d="" stroke="none" fill="#000000" fill-rule="evenodd"></path><path id="path1" d="" stroke="none" fill="#003399" fill-rule="evenodd"></path><path id="path2" d="" stroke="none" fill="#005555" fill-rule="evenodd"></path><path id="path3" d="" stroke="none" fill="#246db6" fill-rule="evenodd"></path><path id="path4" d="M185.373 25.282 C 105.822 31.536,40.448 89.870,25.286 168.129 C 22.917 180.357,22.325 187.101,22.325 201.848 C 22.325 241.572,34.104 276.996,57.843 308.663 C 62.358 314.686,62.289 314.700,61.306 307.975 C 58.918 291.635,61.914 286.095,75.905 280.977 C 83.449 278.217,84.171 277.683,88.981 271.280 C 90.569 269.166,92.683 266.510,93.677 265.378 L 95.485 263.320 95.241 259.220 C 93.747 234.174,107.945 201.917,134.603 169.794 C 147.885 153.788,152.522 136.629,150.764 109.986 C 147.676 63.206,159.823 42.657,192.764 38.933 C 223.728 35.431,242.606 49.309,248.293 79.754 C 250.076 89.301,250.365 93.402,250.646 113.164 C 251.044 141.203,253.069 146.181,274.822 172.594 C 302.412 206.097,312.852 237.725,305.225 264.707 L 304.342 267.828 305.696 268.486 C 311.540 271.325,313.699 274.845,316.442 286.010 C 318.254 293.389,319.240 295.945,321.164 298.253 C 328.531 307.090,330.918 311.833,330.666 317.139 L 330.555 319.477 331.656 318.245 C 351.174 296.416,366.080 265.825,371.942 235.566 C 374.311 223.338,374.904 216.594,374.904 201.848 C 374.904 98.706,287.472 17.255,185.373 25.282 M206.352 84.403 C 198.017 85.832,192.208 95.536,192.703 107.200 L 192.764 108.626 194.216 108.992 C 195.015 109.193,196.609 109.757,197.757 110.246 L 199.846 111.135 199.846 108.782 C 199.846 99.459,206.196 93.555,211.281 98.149 C 215.295 101.777,216.046 110.649,212.785 115.926 C 212.078 117.070,212.025 117.321,212.495 117.321 C 212.677 117.321,214.422 117.945,216.372 118.707 C 220.456 120.304,220.106 120.373,221.691 117.660 C 230.338 102.854,220.694 81.944,206.352 84.403 M165.133 88.057 C 156.486 91.982,154.521 109.790,161.707 119.092 C 162.944 120.692,162.948 120.692,165.093 119.072 L 166.829 117.760 165.826 116.665 C 162.204 112.713,162.121 103.470,165.680 100.255 C 169.311 96.974,173.904 102.006,174.016 109.388 C 174.052 111.765,173.980 111.704,175.647 110.748 C 176.339 110.351,177.702 109.702,178.676 109.306 L 180.446 108.586 180.444 105.640 C 180.436 94.037,172.368 84.772,165.133 88.057 M263.660 250.324 C 255.864 252.294,257.288 269.571,265.589 273.716 C 273.620 277.727,288.254 266.244,284.114 259.179 C 281.457 254.646,268.595 249.078,263.660 250.324 M253.323 263.926 C 247.240 267.955,244.502 277.353,243.418 297.921 C 243.043 305.044,242.345 308.483,238.792 320.708 C 232.602 342.007,232.977 349.307,240.654 357.025 C 251.810 368.239,269.975 363.977,285.854 346.420 C 291.852 339.788,296.242 336.765,309.562 330.092 C 318.411 325.660,322.307 323.358,324.006 321.559 C 327.988 317.344,326.430 311.870,318.557 302.409 C 314.851 297.956,314.275 296.652,312.109 287.805 C 310.192 279.973,309.240 277.589,307.104 275.283 C 302.872 270.712,294.173 269.443,290.443 272.853 C 283.315 279.367,273.668 283.130,267.655 281.743 C 261.492 280.322,256.270 273.091,255.375 264.742 C 255.154 262.675,255.189 262.689,253.323 263.926 M104.635 263.587 C 101.205 264.186,98.351 266.634,93.394 273.228 C 87.598 280.939,85.644 282.456,78.060 285.133 C 69.197 288.261,66.052 291.130,65.235 296.833 C 64.904 299.143,65.018 300.670,66.105 308.545 C 66.668 312.621,66.848 315.016,66.739 316.962 L 66.587 319.683 73.093 326.230 C 81.003 334.190,87.497 339.814,95.098 345.286 C 97.303 346.874,97.834 347.099,101.678 348.085 C 106.470 349.313,110.099 350.652,114.159 352.692 C 139.269 365.302,161.425 359.413,161.496 340.108 C 161.521 333.422,158.423 327.670,147.113 313.400 C 138.154 302.097,137.837 301.613,132.939 291.767 C 121.865 269.505,114.236 261.910,104.635 263.587 M311.470 334.357 C 299.012 340.704,295.376 343.117,290.533 348.255 C 286.016 353.048,281.918 357.043,280.404 358.130 C 278.028 359.836,279.054 359.527,283.045 357.335 C 295.820 350.317,307.433 341.970,318.553 331.812 C 321.100 329.485,320.871 329.567,311.470 334.357 M193.533 345.992 C 188.032 346.565,183.494 347.220,176.751 348.415 C 172.433 349.180,167.827 349.895,166.516 350.004 L 164.133 350.203 163.312 351.622 C 156.594 363.233,140.778 367.149,123.537 361.470 C 120.372 360.428,121.047 360.987,125.245 362.886 C 163.379 380.133,205.236 383.500,245.370 372.551 C 249.426 371.445,259.492 368.204,260.409 367.709 C 260.608 367.602,258.530 367.508,255.790 367.501 C 243.539 367.470,234.607 360.967,230.535 349.115 C 230.373 348.640,229.892 348.576,226.524 348.576 C 222.088 348.576,218.894 348.282,209.546 347.014 C 203.144 346.146,196.269 345.707,193.533 345.992 " stroke="none" fill="#5294e2" fill-rule="evenodd"></path></g></svg>