<svg width="400" height="401.848" xmlns="http://www.w3.org/2000/svg" display="block">
  <path class="path4" d="M185.373 25.282C105.822 31.536 40.448 89.87 25.286 168.129c-2.369 12.228-2.961 18.972-2.961 33.719 0 39.724 11.779 75.148 35.518 106.815 4.515 6.023 4.446 6.037 3.463-.688-2.388-16.34.608-21.88 14.599-26.998 7.544-2.76 8.266-3.294 13.076-9.697 1.588-2.114 3.702-4.77 4.696-5.902l1.808-2.058-.244-4.1c-1.494-25.046 12.704-57.303 39.362-89.426 13.282-16.006 17.919-33.165 16.161-59.808-3.088-46.78 9.059-67.329 42-71.053 30.964-3.502 49.842 10.376 55.529 40.821 1.783 9.547 2.072 13.648 2.353 33.41.398 28.039 2.423 33.017 24.176 59.43 27.59 33.503 38.03 65.131 30.403 92.113l-.883 3.121 1.354.658c5.844 2.839 8.003 6.359 10.746 17.524 1.812 7.379 2.798 9.935 4.722 12.243 7.367 8.837 9.754 13.58 9.502 18.886l-.111 2.338 1.101-1.232c19.518-21.829 34.424-52.42 40.286-82.679 2.369-12.228 2.962-18.972 2.962-33.718 0-103.142-87.432-184.593-189.531-176.566m20.979 59.121c-8.335 1.429-14.144 11.133-13.649 22.797l.061 1.426 1.452.366c.799.201 2.393.765 3.541 1.254l2.089.889v-2.353c0-9.323 6.35-15.227 11.435-10.633 4.014 3.628 4.765 12.5 1.504 17.777-.707 1.144-.76 1.395-.29 1.395.182 0 1.927.624 3.877 1.386 4.084 1.597 3.734 1.666 5.319-1.047 8.647-14.806-.997-35.716-15.339-33.257m-41.219 3.654c-8.647 3.925-10.612 21.733-3.426 31.035 1.237 1.6 1.241 1.6 3.386-.02l1.736-1.312-1.003-1.095c-3.622-3.952-3.705-13.195-.146-16.41 3.631-3.281 8.224 1.751 8.336 9.133.036 2.377-.036 2.316 1.631 1.36.692-.397 2.055-1.046 3.029-1.442l1.77-.72-.002-2.946c-.008-11.603-8.076-20.868-15.311-17.583m98.527 162.267c-7.796 1.97-6.372 19.247 1.929 23.392 8.031 4.011 22.665-7.472 18.525-14.537-2.657-4.533-15.519-10.101-20.454-8.855m-10.337 13.602c-6.083 4.029-8.821 13.427-9.905 33.995-.375 7.123-1.073 10.562-4.626 22.787-6.19 21.299-5.815 28.599 1.862 36.317 11.156 11.214 29.321 6.952 45.2-10.605 5.998-6.632 10.388-9.655 23.708-16.328 8.849-4.432 12.745-6.734 14.444-8.533 3.982-4.215 2.424-9.689-5.449-19.15-3.706-4.453-4.282-5.757-6.448-14.604-1.917-7.832-2.869-10.216-5.005-12.522-4.232-4.571-12.931-5.84-16.661-2.43-7.128 6.514-16.775 10.277-22.788 8.89-6.163-1.421-11.385-8.652-12.28-17.001-.221-2.067-.186-2.053-2.052-.816m-148.688-.339c-3.43.599-6.284 3.047-11.241 9.641-5.796 7.711-7.75 9.228-15.334 11.905-8.863 3.128-12.008 5.997-12.825 11.7-.331 2.31-.217 3.837.87 11.712.563 4.076.743 6.471.634 8.417l-.152 2.721 6.506 6.547c7.91 7.96 14.404 13.584 22.005 19.056 2.205 1.588 2.736 1.813 6.58 2.799 4.792 1.228 8.421 2.567 12.481 4.607 25.11 12.61 47.266 6.721 47.337-12.584.025-6.686-3.073-12.438-14.383-26.708-8.959-11.303-9.276-11.787-14.174-21.633-11.074-22.262-18.703-29.857-28.304-28.18m206.835 70.77c-12.458 6.347-16.094 8.76-20.937 13.898-4.517 4.793-8.615 8.788-10.129 9.875-2.376 1.706-1.35 1.397 2.641-.795 12.775-7.018 24.388-15.365 35.508-25.523 2.547-2.327 2.318-2.245-7.083 2.545m-117.937 11.635c-5.501.573-10.039 1.228-16.782 2.423-4.318.765-8.924 1.48-10.235 1.589l-2.383.199-.821 1.419c-6.718 11.611-22.534 15.527-39.775 9.848-3.165-1.042-2.49-.483 1.708 1.416 38.134 17.247 79.991 20.614 120.125 9.665 4.056-1.106 14.122-4.347 15.039-4.842.199-.107-1.879-.201-4.619-.208-12.251-.031-21.183-6.534-25.255-18.386-.162-.475-.643-.539-4.011-.539-4.436 0-7.63-.294-16.978-1.562-6.402-.868-13.277-1.307-16.013-1.022" fill="#5294e2" fill-rule="evenodd"/>
</svg>
